<mxfile host="app.diagrams.net" modified="2024-01-02T08:33:30.855Z" agent="Mozilla/5.0 (Macintosh; Intel Mac OS X 10_15_7) AppleWebKit/605.1.15 (KHTML, like Gecko) Version/17.2.1 Safari/605.1.15" version="22.1.15" etag="Q_so0Dz2SwAs4zcRRfvm" type="github">
  <diagram name="Page-1" id="8rdlhvIuIUJ8yO0BTk2U">
    <mxGraphModel>
      <root>
        <mxCell id="0" />
        <mxCell id="1" parent="0" />
      </root>
    </mxGraphModel>
  </diagram>
</mxfile>
